<?xml version="1.0" encoding="UTF-8"?>
<svg id="Calque_1" data-name="Calque 1" xmlns="http://www.w3.org/2000/svg" viewBox="0 0 353.74 76.58">
  <g>
    <path d="M1.35,63.3l6.68,1.06c.31,2.32,1.24,4.05,2.78,5.18,1.55,1.13,3.69,1.7,6.45,1.7,3,0,5.39-.63,7.16-1.89,1.78-1.26,2.99-3.14,3.64-5.64,.4-1.52,.6-4.73,.6-9.61-1.48,1.86-3.15,3.26-5.01,4.21-1.85,.94-3.91,1.42-6.17,1.42-4.82,0-8.83-1.79-12.01-5.38C1.82,50.21,0,44.68,0,37.76c0-4.64,.8-8.7,2.41-12.18,1.61-3.48,3.72-6.03,6.33-7.66,2.61-1.63,5.54-2.44,8.79-2.44,2.38,0,4.55,.51,6.52,1.54,1.96,1.03,3.7,2.56,5.22,4.61v-5.17h6.31V53.85c0,6.65-.62,11.4-1.85,14.24-1.24,2.84-3.26,5.08-6.08,6.72-2.81,1.64-9.24,1.78-13.19,1.78-5.23,0-6.21-.55-9.02-3.02-2.81-2.47-4.17-5.89-4.08-10.26Zm5.66-25.99c0,5.69,1.07,9.84,3.21,12.45,2.14,2.61,4.76,3.92,7.85,3.92s5.73-1.28,7.9-3.84c2.17-2.56,3.25-6.63,3.25-12.21s-1.12-9.49-3.35-12.15c-2.23-2.65-4.94-3.98-8.13-3.98-2.85,0-5.35,1.33-7.51,3.98-2.15,2.65-3.23,6.6-3.23,11.82Z" style="fill: #fff;"/>
    <path d="M72.47,45.78l7.05,.94c-1.18,4.62-3.3,8.1-6.38,10.45-3.08,2.35-6.89,3.52-11.43,3.52-5.72,0-10.35-1.91-13.89-5.72-3.54-3.81-5.31-9.32-5.31-16.52s1.79-13.16,5.36-17.09c3.57-3.92,8.09-5.89,13.56-5.89s9.58,1.93,13.08,5.78c3.49,3.86,5.24,9.44,5.24,16.74l-.05,1.95h-30.14c.28,4.86,1.56,8.53,3.85,11,2.29,2.47,5.07,3.71,8.35,3.71,5.13,0,8.7-2.96,10.71-8.88Zm-22.49-11.85h22.54c-.31-3.75-1.22-6.54-2.74-8.39-2.2-2.69-4.99-4.03-8.39-4.03-3.06,0-5.67,1.12-7.84,3.36-2.16,2.24-3.35,5.26-3.57,9.06Z" style="fill: #fff;"/>
    <path d="M100.02,53.74l.93,6.48c-1.89,.43-3.59,.65-5.1,.65-2.38,0-4.3-.41-5.75-1.24-1.45-.83-2.45-1.96-2.99-3.4-.54-1.44-.81-4.3-.81-8.59V22.74h-5.01v-5.7h5.01V6.33l6.82-4.4v15.11h6.91v5.7h-6.91v25.29c0,2.34,.2,3.84,.6,4.52,.59,.98,1.68,1.47,3.29,1.47,.77,0,1.78-.1,3.01-.29Z" style="fill: #fff;"/>
  </g>
  <g>
    <g>
      <rect x="114.61" y="54.57" width="7.1" height="5.14" style="fill: #6f6f6f;"/>
      <path d="M157.92,0l-13.37,41.54c-1.33,4.18-2.32,7.37-2.97,9.57l-2.65-8.84L125.7,0h-6.94c.03,.06,.06,.12,.09,.19,.15,.41,.29,.83,.42,1.25,.01,.03,.02,.07,.03,.1,0,0,0,.01,0,.02,.25,.57,.48,1.15,.68,1.75,.31,.91,.64,1.83,.9,2.76,.27,.96,.47,1.94,.86,2.87,.06,.14,.09,.28,.11,.43l16.02,50.35h6.63l16.26-49.94V59.71h7.1V0h-9.93Z" style="fill: #6f6f6f;"/>
    </g>
    <path d="M174.79,38.08c0-7.47,1.79-13.1,5.36-16.9s8.09-5.7,13.56-5.7,9.88,1.9,13.49,5.7c3.62,3.8,5.43,9.29,5.43,16.46,0,7.77-1.78,13.55-5.33,17.35-3.56,3.8-8.09,5.7-13.59,5.7s-9.92-1.91-13.52-5.72c-3.6-3.81-5.4-9.44-5.4-16.88Zm7-.02c0,5.6,1.16,9.77,3.48,12.5,2.32,2.73,5.19,4.1,8.62,4.1,3.22,0,5.97-1.38,8.28-4.14,2.3-2.76,3.45-6.91,3.45-12.46s-1.16-9.73-3.48-12.46c-2.32-2.73-5.19-4.1-8.63-4.1-3.25,0-6.01,1.37-8.3,4.12-2.29,2.75-3.43,6.89-3.43,12.44Z" style="fill: #6f6f6f;"/>
    <path d="M233.83,53.15l.93,6.48c-1.89,.43-3.59,.65-5.1,.65-2.38,0-4.3-.41-5.75-1.24-1.45-.83-2.45-1.96-2.99-3.4s-.81-4.3-.81-8.59V22.16h-5.01v-5.7h5.01V5.74l6.82-4.4v15.11h6.91v5.7h-6.91v25.29c0,2.34,.2,3.84,.6,4.52,.59,.98,1.68,1.47,3.29,1.47,.77,0,1.78-.1,3.01-.29Z" style="fill: #6f6f6f;"/>
    <path d="M242.37,9.43V1h6.82V9.43h-6.82Zm0,51.28V17.46h6.82V60.71h-6.82Z" style="fill: #6f6f6f;"/>
    <path d="M255.34,39.08c0-7.47,1.79-13.1,5.36-16.9,3.57-3.8,8.09-5.7,13.56-5.7s9.88,1.9,13.49,5.7c3.62,3.8,5.43,9.29,5.43,16.46,0,7.77-1.78,13.55-5.33,17.35-3.56,3.8-8.09,5.7-13.59,5.7s-9.92-1.91-13.52-5.72c-3.6-3.81-5.4-9.44-5.4-16.88Zm7-.02c0,5.6,1.16,9.77,3.48,12.5,2.32,2.73,5.19,4.1,8.62,4.1,3.22,0,5.97-1.38,8.28-4.14,2.3-2.76,3.45-6.91,3.45-12.46s-1.16-9.73-3.48-12.46c-2.32-2.73-5.19-4.1-8.63-4.1-3.25,0-6.01,1.37-8.3,4.12-2.29,2.75-3.43,6.89-3.43,12.44Z" style="fill: #6f6f6f;"/>
    <path d="M298.2,59.71V16.45h6.17v6.11c1.48-2.38,3.29-4.15,5.44-5.33,2.14-1.17,4.6-1.76,7.38-1.76,2.16,0,4.16,.37,5.99,1.12s3.32,1.72,4.45,2.93c1.13,1.21,1.97,2.78,2.52,4.7,.56,1.93,.83,4.89,.83,8.88v26.6h-6.82v-26.34c0-3.18-.31-5.51-.93-6.97s-1.58-2.6-2.9-3.4c-1.31-.8-2.84-1.2-4.57-1.2-3.28,0-5.89,1.07-7.84,3.22-1.95,2.15-2.92,5.83-2.92,11.05v23.65h-6.82Z" style="fill: #6f6f6f;"/>
  </g>
  <g>
    <rect x="341.96" y="12.73" width="1.57" height="1.14" style="fill: #6f6f6f;"/>
    <path d="M351.54,.66l-2.96,9.19c-.29,.92-.51,1.63-.66,2.12l-.59-1.95-2.93-9.35h-1.54s.01,.03,.02,.04c.03,.09,.06,.18,.09,.28,0,0,0,.02,0,.02,0,0,0,0,0,0,.06,.13,.11,.26,.15,.39,.07,.2,.14,.4,.2,.61,.06,.21,.1,.43,.19,.63,.01,.03,.02,.06,.02,.09l3.54,11.14h1.47l3.6-11.05V13.87h1.57V.66h-2.2Z" style="fill: #6f6f6f;"/>
    <path d="M334.12,15.73l1.24,.19c.06,.41,.23,.72,.52,.92,.29,.2,.68,.3,1.19,.3,.55,0,1-.11,1.33-.34,.33-.22,.55-.56,.67-1,.07-.27,.11-.84,.11-1.7-.27,.33-.58,.58-.93,.74-.34,.17-.72,.25-1.14,.25-.89,0-1.63-.32-2.22-.95-.68-.73-1.01-1.71-1.01-2.93,0-.82,.15-1.54,.45-2.16,.3-.61,.69-1.07,1.17-1.36,.48-.29,1.03-.43,1.63-.43,.44,0,.84,.09,1.21,.27,.36,.18,.69,.45,.97,.82v-.92h1.17v6.62c0,1.18-.11,2.02-.34,2.52-.23,.5-.6,.9-1.12,1.19-.52,.29-1.15,.44-1.88,.44-.97,0-1.71-.22-2.23-.66-.52-.44-.77-1.04-.76-1.82Zm1.05-4.6c0,1.01,.2,1.74,.59,2.2,.4,.46,.88,.69,1.45,.69s1.06-.23,1.46-.68c.4-.45,.6-1.17,.6-2.16s-.21-1.68-.62-2.15c-.41-.47-.91-.7-1.51-.7-.53,0-.99,.23-1.39,.7-.4,.47-.6,1.17-.6,2.09Z" style="fill: #fff;"/>
  </g>
</svg>